# xmcd CD database file
#
# Track frame offsets:
#	150
#	15517
#	32072
#	53652
#	66362
#	79340
#	93970
#	104012
#	122100
#	138865
#	161467
#	170685
#	188910
#	201960
#	217725
#	231650
#
# Disc length: 3334 seconds
#
# Revision: 1
# Processed by: cddbd v1.4PL0 Copyright (c) Steve Scherf et al.
# Submitted via: CDex 1.50Beta7
#
DISCID=df0d0410
DTITLE=Glenn Miller - Original Revival - FOREVER
DYEAR=1900
DGENRE=Jazz
TTITLE0=Moonlight serenade
TTITLE1=In the mood
TTITLE2=Tuxedo Junction
TTITLE3=At last
TTITLE4=Rhapsody in blue
TTITLE5=Pennsylvania 6 - 5000
TTITLE6=I've got the world on a string
TTITLE7=Song of the Volga Boatman
TTITLE8=American Patrol
TTITLE9=Chatanooga Choo-Choo
TTITLE10=Danny boy
TTITLE11=Little Brown jug
TTITLE12=I've got a gal in Kalamazoo
TTITLE13=A string a Pearls
TTITLE14=I get a kick out of you
TTITLE15=St. Louis blues march
EXTD=
EXTT0=
EXTT1=
EXTT2=
EXTT3=
EXTT4=
EXTT5=
EXTT6=
EXTT7=
EXTT8=
EXTT9=
EXTT10=
EXTT11=
EXTT12=
EXTT13=
EXTT14=
EXTT15=
PLAYORDER=
